<?xml version="1.0" standalone="no"?>
<!DOCTYPE svg PUBLIC "-//W3C//DTD SVG 1.1//EN" "http://www.w3.org/Graphics/SVG/1.1/DTD/svg11.dtd" >
<svg xmlns="http://www.w3.org/2000/svg">
<metadata>
<json>
<![CDATA[
{
	"fontFamily": "imps-font",
	"description": "Font generated by IcoMoon.",
	"majorVersion": 1,
	"minorVersion": 0,
	"version": "Version 1.0",
	"fontId": "imps-font",
	"psName": "imps-font",
	"subFamily": "Regular",
	"fullName": "imps-font"
}
]]>
</json>
</metadata>
<defs>
<font id="imps-font" horiz-adv-x="1024">
<font-face units-per-em="1024" ascent="960" descent="-64" />
<missing-glyph horiz-adv-x="1024" />
<glyph unicode="&#x20;" horiz-adv-x="512" d="" />
<glyph unicode="&#xe900;" glyph-name="hospital" data-tags="hospital" d="M106.648 21.334h810.666c5.658 0 11.086 2.247 15.085 6.249 4.002 3.999 6.249 9.427 6.249 15.085v512c0 5.658-2.247 11.083-6.249 15.085-3.999 3.999-9.427 6.246-15.085 6.246h-106.666v192.001c0 5.658-2.247 11.084-6.249 15.085-3.999 4.001-9.427 6.248-15.085 6.248h-106.666v21.333c0 16.974-6.744 33.252-18.745 45.255-12.004 12.002-28.283 18.745-45.255 18.745h-213.334c-16.972 0-33.251-6.743-45.255-18.745-12.001-12.002-18.745-28.281-18.745-45.255v-21.333h-106.666c-5.658 0-11.084-2.248-15.085-6.248s-6.248-9.427-6.248-15.085v-192.001h-106.667c-5.658 0-11.084-2.247-15.085-6.246-4.001-4.002-6.248-9.427-6.248-15.085v-512c0-5.658 2.248-11.086 6.248-15.085 4.001-4.002 9.427-6.249 15.085-6.249zM810.648 533.334h85.331v-469.334h-85.331v469.334zM575.98 64h-128v149.334h128v-149.334zM383.98 810.668c0 5.658 2.25 11.084 6.249 15.085 4.002 4.001 9.427 6.248 15.085 6.248h213.334c5.658 0 11.083-2.248 15.085-6.248 3.999-4.001 6.246-9.427 6.246-15.085v-213.333c0-5.658-2.247-11.083-6.246-15.085-4.002-3.999-9.427-6.249-15.085-6.249h-213.334c-5.658 0-11.083 2.25-15.085 6.249-3.999 4.002-6.249 9.427-6.249 15.085v213.333zM255.981 746.668h85.333v-149.333c0-16.975 6.744-33.254 18.745-45.255 12.004-12.001 28.283-18.745 45.255-18.745h213.334c16.972 0 33.251 6.744 45.255 18.745 12.001 12.001 18.745 28.28 18.745 45.255v149.333h85.331v-682.668h-149.331v170.669c0 5.658-2.247 11.083-6.249 15.085-3.999 3.999-9.427 6.246-15.085 6.246h-170.666c-5.658 0-11.086-2.247-15.085-6.246-4.002-4.002-6.249-9.427-6.249-15.085v-170.669h-149.333v682.668zM127.981 533.334h85.333v-469.334h-85.333v469.334zM448.020 682.665h42.666v-42.665c0-5.658 2.247-11.086 6.249-15.085 3.999-4.002 9.427-6.249 15.085-6.249 5.655 0 11.083 2.247 15.085 6.249 3.999 3.999 6.246 9.427 6.246 15.085v42.665h42.669c5.655 0 11.083 2.248 15.085 6.248 3.999 4.001 6.246 9.427 6.246 15.085s-2.247 11.084-6.246 15.085c-4.002 4.001-9.43 6.248-15.085 6.248h-42.669v42.667c0 5.658-2.247 11.084-6.246 15.085-4.002 4.001-9.43 6.248-15.085 6.248-5.658 0-11.086-2.248-15.085-6.248-4.002-4.001-6.249-9.427-6.249-15.085v-42.667h-42.666c-5.658 0-11.086-2.248-15.085-6.248-4.002-4.001-6.249-9.427-6.249-15.085s2.247-11.084 6.249-15.085c3.999-4.001 9.427-6.248 15.085-6.248zM362.648 426.666h42.666c5.658 0 11.086 2.247 15.085 6.249 4.002 3.999 6.249 9.427 6.249 15.085 0 5.655-2.247 11.083-6.249 15.085-3.999 3.999-9.427 6.246-15.085 6.246h-42.666c-5.658 0-11.086-2.247-15.085-6.246-4.002-4.002-6.249-9.43-6.249-15.085 0-5.658 2.247-11.086 6.249-15.085 3.999-4.002 9.427-6.249 15.085-6.249zM426.648 341.334c0 5.658-2.247 11.086-6.249 15.085-3.999 4.002-9.427 6.249-15.085 6.249h-42.666c-5.658 0-11.086-2.247-15.085-6.249-4.002-3.999-6.249-9.427-6.249-15.085s2.247-11.083 6.249-15.085c3.999-3.999 9.427-6.249 15.085-6.249h42.666c5.658 0 11.086 2.25 15.085 6.249 4.002 4.002 6.249 9.427 6.249 15.085zM490.648 426.666h42.666c5.658 0 11.086 2.247 15.085 6.249 4.002 3.999 6.249 9.427 6.249 15.085 0 5.655-2.247 11.083-6.249 15.085-3.999 3.999-9.427 6.246-15.085 6.246h-42.666c-5.658 0-11.086-2.247-15.085-6.246-4.002-4.002-6.249-9.43-6.249-15.085 0-5.658 2.247-11.086 6.249-15.085 3.999-4.002 9.427-6.249 15.085-6.249zM490.648 320h42.666c5.658 0 11.086 2.25 15.085 6.249 4.002 4.002 6.249 9.427 6.249 15.085s-2.247 11.086-6.249 15.085c-3.999 4.002-9.427 6.249-15.085 6.249h-42.666c-5.658 0-11.086-2.247-15.085-6.249-4.002-3.999-6.249-9.427-6.249-15.085s2.247-11.083 6.249-15.085c3.999-3.999 9.427-6.249 15.085-6.249zM618.648 426.666h42.666c5.658 0 11.086 2.247 15.085 6.249 4.002 3.999 6.249 9.427 6.249 15.085 0 5.655-2.247 11.083-6.249 15.085-3.999 3.999-9.427 6.246-15.085 6.246h-42.666c-5.658 0-11.086-2.247-15.085-6.246-4.002-4.002-6.249-9.43-6.249-15.085 0-5.658 2.247-11.086 6.249-15.085 3.999-4.002 9.427-6.249 15.085-6.249zM618.648 320h42.666c5.658 0 11.086 2.25 15.085 6.249 4.002 4.002 6.249 9.427 6.249 15.085s-2.247 11.086-6.249 15.085c-3.999 4.002-9.427 6.249-15.085 6.249h-42.666c-5.658 0-11.086-2.247-15.085-6.249-4.002-3.999-6.249-9.427-6.249-15.085s2.247-11.083 6.249-15.085c3.999-3.999 9.427-6.249 15.085-6.249z" />
<glyph unicode="&#xe901;" glyph-name="baner-vector" data-tags="baner-vector" horiz-adv-x="977" d="M139.404-40.958h-99.274c-1.741 0.687-3.462 1.471-5.222 2.064-21.308 6.982-34.794 24.809-34.813 47.265-0.115 113.908-0.153 227.833 0.038 341.739 0.038 27.143 20.256 47.898 47.418 48.51 27.984 0.631 55.987 0.44 83.971 0.056 18.764-0.247 32.804-9.505 41.584-25.821 2.927-5.453 6.217-6.505 11.821-6.791 20.581-1.033 41.201-2.085 61.648-4.494 9.451-1.11 18.537-5.357 29.265-8.646-30.124 50.974-38.523 104.227-25.784 159.716-13.103 6.926-25.918 12.644-37.567 20.124-11.974 7.689-23.661 16.258-34.067 25.956-51.684 48.261-74.025 110.178-78.75 178.827-2.754 39.92-1.645 80.127-1.989 120.2-0.191 23.604 11.84 35.712 35.176 37.204 39.537 2.544 77.43 10.080 109.642 35.75 11.227 8.952 25.249 7.861 37.318-0.478 6.274-4.323 12.337-9.009 18.937-12.758 28.404-16.106 59.755-20.754 91.699-22.628 20.14-1.186 32.861-14.097 33.168-34.354 0.172-11.764 0.305-23.546 0-35.31-0.957-34.315-1.396-68.669-3.598-102.907-1.089-16.852-5.641-33.494-8.76-51.035 49.445 10.005 96.71 3.98 142.522-19.032 0 4.955 0 8.436 0 11.918 0 45.505-0.019 91.010 0 136.515 0.037 43.765 27.124 70.946 70.717 71.041 14.21 0.019 28.423 0 43.574 0 0 6.427-0.116 11.764 0 17.1 0.649 26.377 20.983 47.418 47.283 47.801 33.722 0.497 67.444 0.536 101.167-0.038 25.479-0.44 45.582-21.098 46.578-46.481 0.228-5.91 0.037-11.84 0.037-18.439 17.676 0 33.876 0.325 50.057-0.077 28.195-0.669 51.798-18.133 60.674-44.319 1.224-3.596 2.39-7.192 3.596-10.788v-248.261c-15.914-43.515-32.766-55.222-79.495-55.222-74.715 0-149.446 0-224.161 0h-10.596c17.31-107.364-20.869-186.785-114.346-240.496 23.222-23.889 29.705-52.333 18.113-86.381 10.54 1.359 19.472 1.664 27.927 3.789 11.362 2.867 22.379 7.096 33.513 10.806 89.153 29.668 178.232 59.487 267.446 88.946 35.328 11.667 68.976-6.37 79.514-41.777 0.612-2.085 1.359-4.112 2.048-6.177v-19.091c-5.49-23.354-21.004-37.72-41.011-49.752-95.255-57.344-190.208-115.226-284.928-173.452-26.857-16.507-55.166-24.273-86.689-24.138-129.42 0.498-258.839 0.228-388.258 0.133-3.978 0-8.397-0.286-11.84-1.987-8.684-4.285-16.928-9.47-25.344-14.289l0.038-0.037zM179.783 8.048h11.439c125.651 0 251.302 0.172 376.954-0.154 23.699-0.058 44.835 6.044 64.957 18.42 74.179 45.601 148.664 90.724 223.032 136.038 24.695 15.053 49.466 30.010 74.082 45.179 10.675 6.579 16.030 16.277 14.252 28.979-1.664 11.839-10.445 21.672-22.132 23.317-6.293 0.88-13.37-0.172-19.491-2.202-93.766-31.043-187.473-62.222-281.046-93.782-18.918-6.391-37.874-9.851-57.9-9.565-41.030 0.575-82.060 0.268-123.108 0.095-8.874-0.037-17.827-0.477-26.605-1.701-23.24-3.214-43.21-14.099-62.243-27.257-8.588-5.949-18.267-3.693-23.375 4.15-4.82 7.403-2.925 16.738 5.127 22.591 28.118 20.447 59.029 33.78 94.282 34.488 28.614 0.573 57.249 0.363 85.883 0.458 18.555 0.058 23.068 3.596 25.842 22.074 0.784 5.22 0.575 10.882-0.498 16.067-4.878 23.259-29.838 42.463-56.541 43.075-23.526 0.535-47.113 0.994-70.6 0.037-47.4-1.913-89.349 11.017-126.895 40.532-30.778 24.178-67.35 27.259-105.357 24.045v-324.869l-0.057-0.019zM438.181 301.068c13.677 0 27.373 0.458 41.011-0.172 9.123-0.421 18.153-2.793 27.294-3.519 5.681-0.461 12.072-0.938 17.119 1.089 83.13 33.455 128.214 123.164 106.161 210.406-21.825 86.326-105.681 143.823-194.569 133.455-75.269-8.778-136.897-64.461-153.961-139.041-16.661-72.895 15.227-149.713 78.615-190.341 12.739-8.169 25.786-12.989 41.144-12.013 12.358 0.784 24.79 0.154 37.185 0.154v-0.019zM766.245 839.078c-47.707 0-95.411 0.057-143.134-0.019-23.508-0.038-36.727-13.217-36.745-36.649-0.077-54.4-0.172-108.798 0.249-163.198 0.037-4.573 2.811-10.405 6.274-13.428 23.354-20.371 42.1-44.148 54.973-72.341 2.774-6.046 6.083-8.131 12.777-8.111 82.060 0.249 164.119 0.133 246.177 0.172 25.384 0 38.102 12.758 38.102 38.139 0.021 72.208 0 144.436 0 216.643 0 26.167-12.47 38.753-38.428 38.772-46.748 0.038-93.514 0-140.265 0l0.021 0.019zM260.331 904.017c-37.759-30.796-83.13-38.696-129.401-42.158 0-36.879-1.263-72.82 0.44-108.627 1.109-23.317 4.648-46.902 10.386-69.549 15.303-60.425 49.886-106.37 106.905-133.895 3.596-1.741 7.422-3.005 11.439-4.592 1.855 3.749 3.291 6.542 4.648 9.374 18.669 38.924 45.603 71.27 83.933 90.913 20.506 10.503 28.847 25.325 32.805 45.526 0.67 3.423 1.569 6.81 2.316 10.214 11.457 52.505 6.388 105.758 7.019 158.761 0 0.516-0.631 1.052-1.187 1.932-45.964 3.118-90.512 11.668-129.285 42.1h-0.019zM32.556 178.516c0-55.645-0.038-111.267 0.019-166.912 0-13.887 5.949-19.931 19.606-20.008 24.79-0.114 49.58-0.114 74.388 0 14.25 0.058 20.18 6.025 20.18 20.506 0.057 111.267 0.057 222.552 0 333.819 0 14.597-5.662 20.219-20.199 20.278-24.158 0.114-48.317 0.074-72.475 0-16.412-0.040-21.519-5.204-21.538-21.73-0.019-55.319 0-110.636 0-165.953h0.019zM700.635 872.245h130.013c0 5.624 0.23 10.654-0.058 15.666-0.535 9.698-6.521 16.048-16.412 16.125-32.344 0.268-64.707 0.268-97.073 0-9.87-0.077-15.895-6.484-16.431-16.163-0.286-5.012-0.058-10.023-0.058-15.608l0.019-0.019zM391.296 408.625c-0.228 15.016 5.127 21.862 14.576 22.609 9.928 0.803 16.621-5.49 17.846-16.756 2.181-20.18 15.781-32.575 34.583-31.581 17.082 0.898 30.701 15.686 30.415 32.996-0.307 17.962-14.117 31.16-33.494 32-32.498 1.417-57.882 23.222-63.313 54.381-5.278 30.185 11.746 59.315 41.393 71.768 3.060 1.28 5.93 5.029 7.117 8.301 2.907 7.938 8.243 12.3 16.335 12.032 7.65-0.23 12.546-4.745 15.244-12.262 1.147-3.214 4.17-6.828 7.249-8.129 22.495-9.621 36.305-26.11 41.048-50.076 0.784-4.017 1.091-8.246 0.766-12.318-0.649-8.264-6.945-14.040-15.016-14.48-8.166-0.458-14.976 4.494-16.833 12.472-0.496 2.141-0.344 4.436-0.612 6.637-2.16 18.036-16.831 30.259-34.984 29.17-16.451-0.977-29.514-14.748-29.859-31.427-0.363-17.922 12.739-31.944 30.911-33.571 7.231-0.631 14.653-1.224 21.518-3.347 25.765-7.957 43.804-31.656 44.989-58.014 1.245-27.946-14.308-52.927-40.015-63.448-5.336-2.181-8.76-4.322-10.024-10.768-1.396-7.191-7.727-10.922-15.034-10.845-7.231 0.077-13.503 3.633-14.899 11.017-1.224 6.447-4.936 8.415-10.177 10.691-24.713 10.789-37.49 30.222-39.71 52.948h-0.019zM879.811 691.409c-0.477-62.625-52.831-114.115-115.247-113.331-62.376 0.782-113.331 52.41-113.064 114.574 0.268 62.683 52.275 114.29 114.749 113.831 62.643-0.459 114.041-52.544 113.543-115.074h0.019zM684.23 693.704c-1.322-44.127 34.525-81.387 79.781-82.918 43.976-1.492 81.524 34.469 83.149 79.649 1.608 44.415-34.851 82.25-80.317 83.379-44.186 1.090-81.257-34.851-82.614-80.109zM225.677 699.902c23.814 31.753 46.29 61.708 68.746 91.662 5.718 7.613 11.322 15.34 17.196 22.839 6.81 8.703 16.563 10.54 24.080 4.782 7.308-5.585 8.571-15.245 2.239-23.738-31.886-42.789-63.849-85.503-96.042-128.043-7.517-9.926-17.253-10.501-26.204-1.95-10.578 10.079-20.907 20.429-30.987 31.006-6.982 7.326-6.924 16.507-0.631 23.068 6.58 6.868 15.972 7 23.68-0.363 5.949-5.681 11.266-12.032 17.923-19.263zM782.804 675.938c-1.953-13.563 3.233-32.079-17.313-31.926-19.968 0.154-14.939 18.113-16.603 31.465-3.633 0.154-7 0.384-10.366 0.44-13.945 0.23-21.348 5.758-21.52 16.107-0.172 10.71 7.345 16.412 21.939 16.603 3.1 0.037 6.198 0 9.947 0 1.78 13.484-3.672 32.096 17.024 31.905 19.835-0.191 15.169-17.981 16.796-31.924 4.112 0 8.090 0.095 12.069 0 12.3-0.326 19.528-6.256 19.721-16.049 0.191-10.061-7.347-16.317-20.143-16.603-3.712-0.077-7.44 0-11.574 0l0.021-0.019z" />
<glyph unicode="&#xe902;" glyph-name="search-appointment" data-tags="search-appointment" d="M788.696 27.255l-66.509 120.513c-37.814-14.973-79.565-16.208-118.17-3.487-38.603 12.715-71.691 38.599-93.647 73.262-11.607 19.001-19.284 40.198-22.597 62.299-3.313 22.107-2.179 44.663 3.335 66.31s15.3 41.933 28.753 59.632c13.453 17.7 30.28 32.445 49.505 43.345 39.151 23.1 85.561 29.99 129.582 19.24s82.273-38.313 106.803-76.963c21.367-35.094 29.047-77.033 21.521-117.583-7.521-40.545-29.696-76.777-62.174-101.569l86.312-108.083c0.848-1.223 1.434-2.611 1.718-4.079s0.273-2.981-0.051-4.443c-0.33-1.456-0.961-2.827-1.849-4.028-0.882-1.195-1.997-2.19-3.282-2.918l-43.708-25.771c-1.729-1.041-3.703-1.593-5.717-1.599-2.014-0.017-3.988 0.523-5.723 1.57-1.729 1.041-3.152 2.549-4.102 4.352zM597.68 402.77c-13.045-7.426-24.474-17.456-33.599-29.488s-15.754-25.816-19.494-40.522-4.504-30.026-2.257-45.039c2.247-15.019 7.466-29.417 15.338-42.325 16.67-26.266 42.645-44.993 72.563-52.298s61.451-2.617 88.058 13.084c13.045 7.424 24.474 17.459 33.599 29.491 9.125 12.026 15.781 25.81 19.519 40.516 3.743 14.706 4.506 30.026 2.258 45.045-2.247 15.013-7.464 29.412-15.337 42.325-10.741 17.163-25.606 31.277-43.196 41.002s-37.325 14.744-57.355 14.587c-21.1 0.018-41.836-5.633-60.097-16.378zM204.806 171.776c-14.813 0-34.14 11.998-34.14 26.67v582.188c0 14.564 19.326 26.674 34.14 26.674h89.313v-108.19c0.863-12.434 6.523-24.020 15.749-32.241s21.272-12.412 33.524-11.664h33.576c12.252-0.748 24.298 3.444 33.524 11.664s14.886 19.806 15.749 32.241v108.19h138.098v-108.19c0.864-12.424 6.508-24.001 15.724-32.221s21.254-12.418 33.496-11.684h33.604c12.254-0.734 24.32 3.461 33.547 11.678 9.233 8.217 14.911 19.794 15.804 32.228v108.19h89.287c14.865 0 34.139-11.843 34.139-26.674v-332.144c-12.754 14.799-27.42 27.773-43.605 38.57v60.656c-0.057 2.25-0.973 4.389-2.566 5.955s-3.709 2.435-5.928 2.421h-548.465c-1.097 0.014-2.187-0.191-3.206-0.604s-1.959-1.028-2.744-1.806c-0.786-0.778-1.414-1.705-1.847-2.728s-0.653-2.124-0.667-3.238v-331.612c0.069-2.224 0.985-4.335 2.565-5.882 1.58-1.542 3.706-2.401 5.899-2.384h252.137c7.374-12.891 16.044-24.974 25.855-36.062h-292.561zM613.456 698.37c-5.228-0.627-10.507 0.837-14.694 4.083s-6.963 8.020-7.748 13.31v141.371c0.785 5.29 3.561 10.063 7.748 13.309s9.466 4.709 14.694 4.082h33.604c5.234 0.615 10.502-0.852 14.694-4.095s6.992-8.008 7.799-13.296v-141.371c-0.808-5.288-3.607-10.054-7.799-13.297s-9.461-4.711-14.694-4.096h-33.604zM343.289 698.37c-5.231-0.627-10.511 0.837-14.697 4.083s-6.964 8.020-7.746 13.31v141.371c0.782 5.29 3.56 10.063 7.746 13.309s9.466 4.709 14.697 4.082h33.55c5.231 0.627 10.511-0.836 14.697-4.082s6.964-8.020 7.747-13.309v-141.371c-0.782-5.29-3.56-10.064-7.747-13.31s-9.466-4.71-14.697-4.083h-33.55z" />
<glyph unicode="&#xe903;" glyph-name="provider" data-tags="provider" d="M171.535-7.077c-10.417 5.336-13.777 14.012-13.635 25.475 0.64 50.95-2.347 102.15 1.76 152.798 9.92 122.55 71.837 212.235 179.406 270.618 0.48 0.249 1.085 0.232 2.667 0.551-4.747-13.742-9.547-26.932-13.848-40.265-15.964-49.349-27.679-99.73-35.376-151.015-0.853-5.706-3.2-7.714-8.267-9.444-34.594-11.782-54.86-43.071-52.566-80.492 2.009-32.654 27.59-61.685 60.78-68.978 39.341-8.619 78.433 14.188 90.61 52.873 11.964 38.007-7.129 79.002-44.070 94.606-2.951 1.246-5.955 2.35-10.63 4.181 6.844 31.534 11.928 63.482 20.923 94.271 11.751 40.209 26.701 79.481 40.034 119.249 1.76 5.226 4.96 7.573 9.955 8.391 24.426 3.965 48.745 10.24 73.313 11.413 45.971 2.222 92.157 3.093 137.595-7.751 8.34-1.991 13.278-4.8 14.683-14.204 5.103-34.186 10.968-68.264 16.64-102.381 1.263-7.555-1.798-11.446-8.71-14.842-35.789-17.636-68.549-39.68-95.322-69.723-17.439-19.57-29.937-41.631-33.403-68.261-4.089-31.465 15.643-69.934 43.785-84.298 8.284-4.233 18.382-1.957 23.842 5.365 5.632 7.578 5.188 17.55-1.604 24.337-3.945 3.965-8.762 7.060-12.78 10.951-15.307 14.865-19.822 32.375-12.337 52.673 9.066 24.57 26.38 42.826 46.627 58.027 19.274 14.473 39.964 27.039 60.126 40.511 31.892-29.366 59.182-59.392 73.916-98.748 2.776-7.413 4.517-15.36 5.564-23.216 3.146-23.558-8.107-42.047-31.073-52.087-2.97-1.297-6.116-2.258-8.96-3.789-9.068-4.853-12.567-15.002-8.585-24.28 3.732-8.693 13.363-13.084 22.841-10.456 43.804 12.231 70.434 54.738 62.982 100.050-5.791 35.339-23.142 65.047-45.312 92.052-12.356 15.053-26.578 28.547-39.765 42.911-2.008 2.185-4.324 5.37-4.215 7.982 1.456 36.818-6.098 72.442-13.494 108.103-0.284 1.387-0.546 2.791-1.138 5.742 7.134-3.325 13.244-5.849 19.041-8.96 110.057-59.215 171.179-150.84 181.646-275.956 0.284-3.499 0.961-6.986 1.456-10.468v-145.772c-4.727-5.922-9.455-11.856-14.182-17.778l-680.917 0.034zM529.743 903.111c14.897-3.431 30.203-5.635 44.636-10.471 86.471-28.941 141.278-112.44 134.167-203.299-6.969-88.903-74.308-162.927-162.572-178.713-110.111-19.679-215.458 58.362-229.342 169.896-13.599 109.116 62.647 207.263 171.691 221.040 2.009 0.249 3.965 1.014 5.955 1.547 11.822 0 23.644 0 35.466 0z" />
<glyph unicode="&#xe904;" glyph-name="group-enrollment" data-tags="group-enrollment" d="M85.333 21.362v255.113c0 82.904 45.649 146.137 168.113 164.404l84.514-18.268c-44.935 49.308-71.5 111.051-75.657 175.84 0 9.005 0.548 17.467 1.066 25.985 5.616 30.818 14.558 61.020 26.689 90.136 14.989 46.601 45.647 87.385 87.382 116.245s92.302 44.242 144.125 43.843c124.778 0 243.466-85.447 243.466-276.266 1.365-66.415-19.638-131.537-60.012-186.074h81.465c19.928 0.593 39.777-2.615 58.351-9.43 18.569-6.815 35.476-17.092 49.698-30.217s25.463-28.826 33.047-46.143c7.583-17.323 11.349-35.908 11.071-54.63v-250.567l-853.316 0.028zM142.182 235.964v-161.513h340.853v211.917c-42.333 0.882-63.058 19.439-103.473 50.022h-118.172c-55.906 0.028-119.33-44.965-119.33-100.426h0.122zM540.341 316.154v-240.333h340.396v173.266c0 55.398-24.769 87.302-80.771 87.302h-121.185c-26.385-20.065-109.954-12.060-138.562-20.207l0.122-0.028zM336.865 634.47c-1.814-12.749-2.831-25.588-3.044-38.449 0-117.208 112.603-212.231 187.621-212.231 75.015 0 187.621 95.052 187.621 212.231-0.068 21.885-2.651 43.699-7.697 65.064-16.304-1.809-32.705-2.764-49.124-2.859-43.861-1.122-87.512 6.156-128.286 21.391s-77.82 38.11-108.879 67.229c-17.621-48.856-40.628-93.365-78.365-112.347l0.152-0.029zM277.794 126.333v76.641h-80.953v26.761h80.953v77.187h28.12v-77.187h80.709v-26.789h-80.982v-76.641l-27.847 0.028zM419.552 582.585c0.41 6.933 2.974 13.601 7.375 19.181s10.445 9.826 17.387 12.213c6.942 2.388 14.477 2.813 21.672 1.223s13.738-5.127 18.818-10.172c5.080-5.044 8.475-11.377 9.766-18.214s0.42-13.88-2.504-20.258c-2.924-6.378-7.773-11.811-13.948-15.629s-13.406-5.852-20.799-5.851c-5.116 0.118-10.156 1.184-14.833 3.136s-8.897 4.751-12.421 8.238c-3.523 3.487-6.278 7.593-8.109 12.082s-2.699 9.274-2.558 14.079l0.152-0.028zM533.159 582.041c0.334 6.714 2.76 13.188 6.977 18.617s10.039 9.577 16.744 11.925c6.704 2.348 13.994 2.794 20.969 1.284 6.969-1.51 13.318-4.912 18.25-9.781s8.232-10.992 9.489-17.608c1.263-6.616 0.421-13.434-2.406-19.607-2.833-6.173-7.532-11.43-13.511-15.115-5.985-3.686-12.988-5.64-20.144-5.619-4.911 0.104-9.752 1.117-14.247 2.982s-8.553 4.544-11.943 7.885c-3.389 3.341-6.044 7.277-7.811 11.584s-2.613 8.898-2.487 13.512l0.122-0.057z" />
<glyph unicode="&#xe905;" glyph-name="info-blue" data-tags="info-blue" d="M511.842-49.766c-98.447 0.026-194.677 29.235-276.523 83.942s-145.631 132.459-183.291 223.417c-37.66 90.959-47.503 191.042-28.285 287.595s66.635 185.239 136.254 254.844c69.62 69.606 158.316 117.004 254.872 136.203s196.638 9.335 287.59-28.344c90.951-37.678 168.683-101.48 223.381-183.337 54.69-81.857 83.883-178.093 83.883-276.54-0.128-131.998-52.625-258.551-145.971-351.877-93.348-93.329-219.913-145.801-351.91-145.903v0zM469.967 526.288c0.74 0.013 1.476-0.102 2.177-0.34 3.044-1.254 5.512-3.597 6.921-6.572s1.658-6.368 0.699-9.518l-82.798-274.079c-2.348-7.046-3.128-14.52-2.289-21.9s3.282-14.487 7.153-20.826c5.5-7.761 12.593-14.258 20.806-19.057s17.357-7.788 26.818-8.769c61.232 0 99.162 38.201 140.221 99.841 0 2.279 0.238 5.783 0.476 9.253 0.96 8.427 1.085 16.927 0.374 25.377l-49.937-60.211c-6.759-8.812-16.386-14.985-27.215-17.451-0.808-0.003-1.612 0.124-2.381 0.375-2.8 1.103-5.116 3.167-6.531 5.823s-1.838 5.728-1.191 8.668l83.207 275.541c1.929 8.299 2.096 16.91 0.491 25.277s-4.948 16.305-9.812 23.3c-5.070 6.512-11.47 11.867-18.772 15.71s-15.342 6.083-23.579 6.572c-41.297 0-103.311-44.222-141.24-100.964 0-1.497 0-3.401 0-5.885v-1.293c-0.445-8.776-0.308-17.572 0.408-26.33l50.074 60.075c6.393 8.593 15.544 14.73 25.922 17.383v0zM578.551 736.924c-7.568 0.298-15.117-0.965-22.176-3.71s-13.478-6.912-18.858-12.244c-5.379-5.332-9.604-11.713-12.412-18.748s-4.138-14.571-3.908-22.141c-0.101-11.365 3.176-22.503 9.417-32.002s15.162-16.929 25.633-21.349c10.47-4.419 22.018-5.628 33.177-3.473s21.426 7.577 29.498 15.578c8.073 8 13.586 18.218 15.84 29.357s1.149 22.697-3.177 33.207c-4.326 10.511-11.676 19.498-21.118 25.823s-20.551 9.702-31.916 9.702v0z" />
<glyph unicode="&#xe906;" glyph-name="search-grey" data-tags="search-grey" d="M1009.675 73.132l-221.302 232.523c43.814 67.986 67.046 147.176 66.903 228.058 0.321 94.415-30.82 186.251-88.503 260.998-57.682 74.746-138.619 128.154-230.031 151.778s-188.090 16.114-274.766-21.325c-86.675-37.439-158.41-102.678-203.875-185.427s-62.071-178.288-47.194-271.524c14.877-93.236 60.389-178.85 129.348-243.339s157.438-104.17 251.462-112.776c94.023-8.607 188.233 14.344 267.753 65.244l221.302-232.522c5.694-5.647 13.391-8.821 21.411-8.821s15.714 3.173 21.409 8.821l85.786 85.644c5.677 5.629 8.895 13.274 8.952 21.27 0.055 7.995-3.057 15.69-8.655 21.398zM427.91 262.679c-50.754 0.118-100.335 15.276-142.479 43.557s-74.961 68.431-94.305 115.354c-19.344 46.924-24.349 98.528-14.381 148.295 9.969 49.765 34.461 95.454 70.386 131.306s81.671 60.259 131.457 70.127c49.785 9.867 101.378 4.758 148.262-14.682s86.953-52.336 115.15-94.538c28.196-42.201 43.254-91.822 43.269-142.577-0.138-68.165-27.314-133.481-75.563-181.633s-113.629-75.209-181.795-75.209z" />
<glyph unicode="&#xe907;" glyph-name="right-arrow" data-tags="right-arrow" horiz-adv-x="614" d="M591.457 487.956l-455.693 455.685c-10.539 10.548-24.609 16.359-39.611 16.359s-29.071-5.811-39.611-16.359l-33.559-33.55c-21.837-21.862-21.837-57.394 0-79.222l382.657-382.657-383.081-383.080c-10.54-10.548-16.359-24.61-16.359-39.603 0-15.010 5.819-29.071 16.359-39.628l33.559-33.542c10.548-10.547 24.609-16.358 39.611-16.358s29.071 5.811 39.61 16.358l456.118 456.101c10.565 10.582 16.367 24.709 16.334 39.728 0.033 15.076-5.769 29.196-16.334 39.769z" />
<glyph unicode="&#xe908;" glyph-name="left-arrow" data-tags="left-arrow" horiz-adv-x="614" d="M208.353 447.784l383.075 383.092c10.548 10.524 16.351 24.593 16.351 39.595 0 15.010-5.803 29.072-16.351 39.611l-33.567 33.551c-10.532 10.556-24.61 16.367-39.611 16.367-15.003 0-29.063-5.811-39.603-16.367l-456.113-456.104c-10.581-10.574-16.376-24.701-16.334-39.72-0.042-15.086 5.744-29.196 16.334-39.778l455.688-455.663c10.54-10.556 24.602-16.368 39.611-16.368 15.003 0 29.063 5.811 39.611 16.368l33.559 33.55c21.838 21.837 21.838 57.386 0 79.215l-382.65 382.651z" />
<glyph unicode="&#xe909;" glyph-name="footer-prev" data-tags="footer-prev" d="M133.12 960c-31.105 0-56.32-25.215-56.32-56.32v-911.36c0-31.105 25.215-56.32 56.32-56.32h51.2c31.105 0 56.32 25.215 56.32 56.32v911.36c0 31.105-25.215 56.32-56.32 56.32h-51.2zM817.627 943.641l-455.693-455.685c-10.565-10.573-16.367-24.693-16.334-39.769-0.033-15.019 5.769-29.146 16.334-39.728l456.117-456.101c10.54-10.547 24.61-16.358 39.611-16.358s29.063 5.811 39.611 16.358l33.559 33.542c10.539 10.556 16.358 24.618 16.358 39.628 0 14.993-5.819 29.055-16.358 39.603l-383.081 383.080 382.657 382.657c21.837 21.829 21.837 57.36 0 79.222l-33.559 33.55c-10.54 10.548-24.609 16.359-39.611 16.359s-29.071-5.811-39.61-16.359z" />
<glyph unicode="&#xe90a;" glyph-name="footer-next" data-tags="footer-next" d="M206.364 943.641l455.693-455.685c10.565-10.573 16.368-24.693 16.334-39.769 0.034-15.019-5.769-29.146-16.334-39.728l-456.117-456.101c-10.54-10.547-24.61-16.358-39.611-16.358s-29.063 5.811-39.61 16.358l-33.559 33.542c-10.54 10.556-16.359 24.618-16.359 39.628 0 14.993 5.819 29.055 16.359 39.603l383.081 383.080-382.656 382.657c-21.837 21.829-21.837 57.36 0 79.222l33.558 33.55c10.54 10.548 24.61 16.359 39.611 16.359s29.071-5.811 39.61-16.359zM839.68 960c-31.105 0-56.32-25.215-56.32-56.32v-911.36c0-31.105 25.215-56.32 56.32-56.32h51.2c31.105 0 56.32 25.215 56.32 56.32v911.36c0 31.105-25.215 56.32-56.32 56.32h-51.2z" />
<glyph unicode="&#xe90b;" glyph-name="lock-open" data-tags="lock-open" d="M409.943 495.236v203.527c0 82.17-66.62 148.818-148.762 148.818-82.171 0-148.762-66.616-148.762-148.818v-311.623c0-24.324-19.718-44.043-44.043-44.043s-44.043 19.719-44.043 44.043v311.623c0 130.842 106.021 236.904 236.848 236.904 130.799 0 236.847-106.094 236.847-236.904v-203.527h390.778c48.64 0 88.073-39.372 88.073-88.148v-374.244c0-48.683-39.347-88.149-88.073-88.149h-484.501c-48.64 0-88.070 39.373-88.070 88.149v374.244c0 48.683 39.348 88.148 88.070 88.148h5.638zM676.337 226.237c15.206 9.797 25.274 26.878 25.274 46.311 0 30.406-24.649 55.054-55.055 55.054s-55.054-24.648-55.054-55.054c0-19.437 10.074-36.522 25.284-46.318l-24.322-92.177c-3.781-11.995 3.895-21.719 17.471-21.719h73.253c13.482 0 21.238 9.769 17.471 21.719l-24.323 92.184z" />
<glyph unicode="&#xe90c;" glyph-name="horizontal-ellipse" data-tags="horizontal-ellipse" horiz-adv-x="2816" d="M179.344 754.983h340.713c75.576 0 136.845-61.267 136.845-136.843v-340.713c0-75.576-61.268-136.845-136.845-136.845h-340.713c-75.577 0-136.844 61.268-136.844 136.845v340.713c0 75.576 61.267 136.843 136.844 136.843zM1578.207 754.983h-340.713c-75.576 0-136.845-61.267-136.845-136.843v-340.713c0-75.576 61.268-136.845 136.845-136.845h340.713c75.576 0 136.842 61.268 136.842 136.845v340.713c0 75.576-61.266 136.843-136.842 136.843zM2636.339 755h-340.713c-75.576 0-136.842-61.268-136.842-136.845v-340.713c0-75.576 61.266-136.842 136.842-136.842h340.713c75.571 0 136.832 61.266 136.832 136.842v340.713c0 75.576-61.261 136.845-136.832 136.845z" />
<glyph unicode="&#xe90d;" glyph-name="setting" data-tags="setting" d="M414.475 960l-23.238-128.001c-22.572-7.096-44.476-16.285-65.144-27.049l-107.43 73.906-137.9-137.9 74.287-107.048c-10.81-20.714-19.905-42.477-27.049-65.144l-128.001-23.238v-195.050l128.001-23.238c7.143-22.712 16.572-44.383 27.429-65.144l-74.668-107.046 137.9-137.901 107.048 73.907c20.762-10.861 42.81-19.91 65.524-27.053l23.238-128h195.050l23.238 128c22.669 7.142 44.429 16.237 65.146 27.053l107.046-73.907 137.901 137.901-74.285 107.046c10.758 20.666 19.949 42.189 27.046 64.763l128.378 23.619v195.050l-128.378 23.238c-7.098 22.524-15.955 44.143-26.669 64.762l73.907 107.43-137.901 137.9-107.046-73.906c-20.717 10.81-42.477 19.905-65.146 27.049l-23.238 128.001h-195.049zM512 667.425c121.192 0 219.43-98.239 219.43-219.432s-98.239-219.43-219.43-219.43c-121.192 0-219.431 98.239-219.431 219.43s98.239 219.432 219.431 219.432z" />
<glyph unicode="&#xe90e;" glyph-name="invalid" data-tags="invalid" horiz-adv-x="1099" d="M1066.68 207.147l-362.897 645.404c-27.439 60.363-85.228 102.592-153.344 107.338l-0.572 0.032c-68.719-4.749-126.543-46.985-153.53-106.23l-0.465-1.14-362.897-645.404c-20.251-29.385-32.346-65.753-32.346-104.945 0-30.792 7.466-59.841 20.686-85.434l-0.489 1.042c33.931-50.175 90.623-82.724 154.917-82.724 5.591 0 11.124 0.246 16.589 0.728l-0.708-0.050h716.721c4.77-0.434 10.316-0.681 15.921-0.681 64.283 0 120.964 32.551 154.458 82.070l0.419 0.658c12.655 24.484 20.075 53.442 20.075 84.133 0 39.305-12.169 75.768-32.946 105.826l0.406-0.621zM1005.855 60.726c-20.104-25.075-50.733-40.992-85.081-40.992-4.519 0-8.973 0.276-13.347 0.811l0.525-0.052h-716.642c-3.817-0.474-8.235-0.745-12.716-0.745-34.353 0-64.99 15.911-84.943 40.766l-0.165 0.213c-5.067 12.115-8.010 26.192-8.010 40.957 0 24.080 7.829 46.332 21.081 64.348l-0.211-0.301 362.897 645.404c23.036 40.865 52.304 64.296 80.39 64.296s57.275-23.667 80.232-64.296l362.897-645.404c13.121-17.768 21-40.102 21-64.277 0-14.676-2.904-28.674-8.169-41.45l0.264 0.724zM549.552 238.151c-30.76 0-55.697-24.936-55.697-55.697s24.936-55.697 55.697-55.697c30.76 0 55.697 24.936 55.697 55.697 0 0.028 0 0.056 0 0.083v-0.004c-0.045 30.727-24.964 55.618-55.697 55.618 0 0 0 0 0 0v0zM549.552 641.361c-30.699-0.045-55.573-24.919-55.618-55.614v-0.004c0-1.657 0-3.156 0.473-4.733v0l22.168-269.569c1.233-17.332 15.596-30.925 33.134-30.925s31.901 13.593 33.128 30.819l0.006 0.106 22.168 269.569c0 1.578 0.473 3.077 0.473 4.733-0.045 30.727-24.964 55.618-55.697 55.618-0.083 0-0.166 0-0.25-0.001h0.013z" />
<glyph unicode="&#xe90f;" glyph-name="warning" data-tags="warning" horiz-adv-x="1183" d="M1152.566-63.847h-1122.246c-18.827 19.168-30.45 45.468-30.45 74.482s11.622 55.314 30.465 74.497l-0.015-0.016 487.527 844.323c18.764 19.035 44.832 30.827 73.655 30.827s54.89-11.792 73.643-30.815l0.012-0.012 487.409-844.204c18.816-19.166 30.43-45.458 30.43-74.462s-11.614-55.296-30.446-74.478l0.016 0.016zM605.225 212.501c-0.246 0.004-0.536 0.006-0.827 0.006-32.621 0-59.066-26.445-59.066-59.066s26.445-59.066 59.066-59.066c32.619 0 59.062 26.441 59.066 59.059v0c0.001 0.118 0.001 0.258 0.001 0.398 0 32.234-25.942 58.409-58.086 58.786h-0.036zM604.95 685.419c-32.274-0.067-58.413-26.234-58.436-58.512v-276.823c0-32.306 26.189-58.495 58.495-58.495s58.495 26.189 58.495 58.495v0 276.821c0 0.012 0 0.026 0 0.040 0 32.305-26.143 58.503-58.427 58.593h-0.009z" />
<glyph unicode="&#xe910;" glyph-name="toast-tick" data-tags="toast-tick" d="M227.473 22.344c84.162-56.259 183.112-86.303 284.345-86.344 129.954 0.026 255.041 49.454 349.909 138.266 94.874 88.817 152.433 210.376 161.014 340.050-27.914-18.227-59.863-29.338-93.056-32.369-12.636-79.831-47.877-154.373-101.555-214.799-53.683-60.426-123.551-104.207-201.339-126.157-77.783-21.949-160.233-21.156-237.582 2.294s-146.36 68.567-198.863 130.017c-52.503 61.45-86.3 136.658-97.39 216.719s0.991 161.624 34.814 235.032c33.823 73.408 87.97 135.588 156.033 179.179s147.19 66.768 228.015 66.788c62.59 0.22 124.434-13.606 180.975-40.46 10.701 27.848 25.17 54.094 43.008 78.006-95.805 46.511-203.73 62.005-308.75 44.326-105.022-17.679-201.924-67.652-277.223-142.967-71.556-71.61-120.277-162.825-140.008-262.117s-9.585-202.203 29.156-295.73c38.741-93.527 104.336-173.476 188.498-229.734zM351.97 556.193c-28.363-10.455-40.426-14.901-40.426-64.885 118.789-313.316 233.609-345.562 275.731-218.033 109.092 278.598 292.787 423.869 383.089 495.281 36.326 28.728 57.539 45.503 52.7 54.197-16.876 30.304-366.92-121.096-524.711-375.060-6.061 11.183-11.315 21.027-16.103 29.997-13.591 25.46-23.424 43.881-37.277 65.932-18.733 29.818-42.402 32.489-80.069 17.479-4.641-1.849-8.948-3.437-12.934-4.906z" />
<glyph unicode="&#xe911;" glyph-name="cross-fill" data-tags="cross-fill" d="M511.905 935.571c-96.442 0-190.718-28.598-270.907-82.179s-142.688-129.736-179.595-218.837c-36.907-89.1-46.563-187.145-27.748-281.733s65.256-181.471 133.451-249.669c68.195-68.191 155.080-114.637 249.669-133.449 94.588-18.82 192.633-9.157 281.733 27.75 89.101 36.901 165.258 99.401 218.835 179.588 53.584 80.192 82.183 174.468 82.183 270.91-0.154 129.278-51.58 253.217-142.994 344.63-91.407 91.413-215.349 142.836-344.627 142.989zM699.949 322.545c4.234-4.089 7.611-8.98 9.934-14.389s3.546-11.225 3.597-17.111c0.051-5.886-1.071-11.723-3.299-17.171s-5.521-10.397-9.683-14.56c-4.162-4.162-9.111-7.453-14.559-9.683s-11.285-3.35-17.172-3.299c-5.886 0.050-11.703 1.273-17.111 3.597s-10.299 5.7-14.389 9.934l-125.362 125.406-125.362-125.406c-8.36-8.075-19.558-12.543-31.181-12.442s-22.742 4.763-30.961 12.982c-8.218 8.219-12.88 19.337-12.981 30.96s4.367 22.821 12.442 31.181l125.362 125.407-125.362 125.407c-4.234 4.089-7.611 8.98-9.934 14.389s-3.546 11.225-3.597 17.111c-0.051 5.886 1.071 11.723 3.299 17.171s5.52 10.397 9.683 14.56c4.162 4.162 9.111 7.453 14.559 9.683s11.285 3.35 17.171 3.299c5.887-0.051 11.703-1.274 17.112-3.598s10.299-5.7 14.389-9.934l125.362-125.406 125.362 125.406c4.089 4.234 8.98 7.611 14.389 9.934s11.225 3.547 17.111 3.598c5.887 0.050 11.723-1.071 17.172-3.299s10.397-5.521 14.559-9.683c4.162-4.163 7.454-9.112 9.683-14.56s3.351-11.285 3.299-17.171c-0.051-5.886-1.274-11.703-3.597-17.111s-5.701-10.3-9.934-14.389l-125.362-125.407 125.362-125.407z" />
<glyph unicode="&#xe912;" glyph-name="caret-down" data-tags="caret-down" d="M512.016 234.633l426.667 426.667h-853.333l426.666-426.667z" />
<glyph unicode="&#xe913;" glyph-name="sort-alt" data-tags="sort-alt" d="M227.417 392.818h568.889l-284.286-371.485-284.603 371.485zM230.326 494.522l281.694 380.145 281.537-380.239-563.231 0.095z" />
<glyph unicode="&#xe914;" glyph-name="delete" data-tags="delete" d="M309.38 21.325c-61.642 0-77.112 6.093-77.112 60.941v487.54l-14.989 5.059c-12.159-0.147-23.896 4.471-32.627 12.84s-13.738 19.804-13.965 31.825v81.549c0.227 12.004 5.229 23.426 13.965 31.766s20.484 12.917 32.627 12.721l138.573 7.068v60.942c-0.565 8.147 0.654 16.322 3.552 23.969s7.402 14.595 13.243 20.369c5.841 5.774 12.852 10.243 20.588 13.108s16.019 4.055 24.259 3.496h184.924c8.243 0.569 16.519-0.62 24.259-3.482s14.744-7.331 20.587-13.108c5.843-5.777 10.406-12.717 13.306-20.369 2.893-7.652 4.064-15.835 3.488-23.985v-60.942h123.283c25.702 0 61.645-26.876 61.645-51.436v-81.534c0-55.214 25.459-44.68-46.534-44.68l-15.046-5.059v-487.537c0-49.613-20.71-60.947-77.114-60.947l-400.911-0.115zM725.459 82.266v487.54h-431.489v-487.54h431.489zM232.329 691.69v-60.943l560.612-2.261v63.873l-560.612-0.669zM417.253 752.633h184.924v60.942h-184.924v-60.942zM602.177 143.206v365.656h61.644v-365.656h-61.644zM478.894 143.206v365.656h61.642v-365.656h-61.642zM355.612 143.206v365.656h61.642v-365.656h-61.642z" />
<glyph unicode="&#xe915;" glyph-name="filter" data-tags="filter" d="M878.693 837.966c-0.045 9.747-3.95 19.078-10.862 25.951s-16.262 10.728-26.009 10.719h-659.261c-9.582 0.004-18.785-3.747-25.634-10.447s-10.801-15.817-11.009-25.397c-0.208-9.579 3.348-18.857 9.9-25.849s15.583-11.136 25.156-11.547l236.874-284.754 31.067-472.43c0.332-4.697 2.001-9.202 4.814-12.98 2.812-3.78 6.647-6.666 11.051-8.333s9.196-2.039 13.804-1.071c4.608 0.977 8.843 3.249 12.2 6.544l109.132 106.301c4.638 4.629 7.261 10.903 7.296 17.455v365.118l236.366 284.148c9.434 0.408 18.348 4.436 24.888 11.246s10.201 15.88 10.227 25.324z" />
<glyph unicode="&#xe916;" glyph-name="minus" data-tags="minus" d="M938.683 501.3h-853.333v-106.668h853.333v106.668z" />
<glyph unicode="&#xe917;" glyph-name="add" data-tags="add" d="M565.256 501.273v373.427h-106.479v-373.427h-373.428v-106.479h373.428v-373.427h106.479v373.427h373.427v106.479h-373.427z" />
<glyph unicode="&#xe918;" glyph-name="TI_noBnechmark" data-tags="TI_noBnechmark" d="M512.024 21.307c235.642 0 426.669 191.027 426.669 426.669s-191.027 426.667-426.669 426.667c-235.642 0-426.667-191.025-426.667-426.667s191.025-426.669 426.667-426.669zM746.335 717.61c1.719-6.021 0.571-12.496-3.109-17.561l-77.678-106.884c11.798-14.050 17.697-32.976 17.697-56.78 0-14.089-2.292-26.821-6.875-38.194-4.413-11.374-10.864-20.71-19.351-28.009s-18.842-12.052-31.065-14.259v-2.547c12.393-2.546 23.596-6.96 33.611-13.24 10.015-6.111 17.994-15.108 23.935-26.991 6.111-11.712 9.167-27.33 9.167-46.852 0-22.577-5.517-41.929-16.551-58.056s-26.821-28.518-47.361-37.176c-20.37-8.488-44.645-12.731-72.824-12.731h-133.718l-62.761-86.363c-6.682-9.194-19.511-11.198-28.654-4.476-9.144 6.715-11.139 19.617-4.457 28.811l90.308 124.266v310.031h115.857c41.353 0 74.317-4.844 98.893-14.532l76.804 105.684c4.865 6.693 12.638 10.654 20.913 10.654 7.698 0 14.464-5.108 16.578-12.513l0.644-2.281zM540.088 420.528l-44.505-61.239v-35.775h51.435c23.766 0 40.316 4.583 49.653 13.75s14.005 21.473 14.005 36.921c0 9.167-2.037 17.23-6.111 24.19s-10.949 12.392-20.625 16.296c-9.506 3.904-22.663 5.857-39.468 5.857h-4.384zM534.815 483.167l52.798 72.651c-0.369 0.233-0.745 0.461-1.127 0.683-10.355 6.281-26.821 9.421-49.398 9.421h-41.504v-82.755h39.232z" />
<glyph unicode="&#xe919;" glyph-name="TI_mediumWeight" data-tags="TI_mediumWeight" d="M170.691 704h682.667c47.126 0 85.336-38.205 85.336-85.334v-298.666c0-47.128-38.21-85.334-85.336-85.334h-682.667c-47.128 0-85.334 38.205-85.334 85.334v298.666c0 47.129 38.205 85.334 85.334 85.334zM172.613 569.434l89.391-249.434h45.014l92.788 249.025h1.699c-0.283-5.72-0.708-13.346-1.274-22.88-0.425-9.533-0.849-19.612-1.274-30.234-0.283-10.623-0.425-20.497-0.425-29.622v-166.289h48.624v298.666h-71.343l-88.967-238.402h-1.274l-85.994 238.402h-71.555v-298.666h46.288v163.838c0 10.078-0.212 20.633-0.637 31.664s-0.92 21.382-1.486 31.051c-0.566 9.669-1.061 17.296-1.486 22.881h1.911zM814.914 320l81.108 298.666h-51.383l-44.588-175.073c-1.982-7.491-3.964-15.662-5.947-24.515s-3.752-17.568-5.31-26.149c-1.558-8.58-2.831-16.206-3.818-22.88-0.709 4.903-1.631 10.418-2.765 16.547-1.126 6.129-2.406 12.461-3.818 18.999-1.419 6.537-2.904 12.938-4.462 19.203-1.412 6.265-2.896 11.916-4.454 16.955l-51.599 176.912h-49.685l-50.534-176.299c-1.557-4.903-3.114-10.418-4.672-16.547-1.415-6.129-2.831-12.529-4.247-19.203-1.274-6.537-2.477-13.006-3.61-19.407-1.132-6.265-2.052-11.985-2.76-17.16-0.707 5.039-1.627 10.623-2.76 16.751-1.133 6.265-2.406 12.666-3.822 19.203-1.274 6.538-2.689 13.006-4.247 19.408-1.415 6.537-2.831 12.597-4.247 18.181l-44.801 175.073h-51.171l80.897-298.666h55.419l50.959 178.751c1.273 4.63 2.689 9.942 4.247 15.934 1.556 6.129 2.973 12.257 4.247 18.386 1.415 6.265 2.619 11.984 3.609 17.16s1.628 9.193 1.911 12.052c0.425-2.86 1.132-6.946 2.123-12.257 1.132-5.175 2.406-10.895 3.822-17.16 1.557-6.265 3.114-12.393 4.672-18.386s2.973-11.167 4.247-15.525l51.807-178.955h55.632z" />
<glyph unicode="&#xe91a;" glyph-name="TI_inverseMeasure" data-tags="TI_inverseMeasure" d="M512.024 21.307c-235.642 0-426.667 191.027-426.667 426.669s191.025 426.667 426.667 426.667c235.642 0 426.669-191.025 426.669-426.667s-191.027-426.669-426.669-426.669zM426.691 191.978h213.334v44.458l-64.693 17.927v386.51l64.693 18.644v44.459h-213.334v-44.459l65.463-18.644v-386.51l-65.463-17.927v-44.458z" />
<glyph unicode="&#xe91b;" glyph-name="TI_intermediateOutcome" data-tags="TI_intermediateOutcome" d="M512.028-49.809c-274.916 0-497.778 222.866-497.778 497.781s222.862 497.778 497.778 497.778c274.915 0 497.781-222.862 497.781-497.778s-222.866-497.781-497.781-497.781zM754.301 336.096c10.187 33.714 15.281 71.066 15.281 112.058 0 55.301-9.096 103.447-27.286 144.438-17.949 40.991-45.6 72.765-82.953 95.322-37.11 22.557-84.529 33.836-142.255 33.836-57.969 0-105.752-11.279-143.347-33.836s-65.488-54.332-83.68-95.322c-17.948-40.748-26.923-88.652-26.923-143.711 0-41.233 5.094-78.707 15.281-112.422s25.589-62.699 46.205-86.954c20.86-24.255 47.176-42.931 78.95-56.029 31.775-12.855 69.37-19.283 112.786-19.283s81.011 6.427 112.786 19.283c31.774 13.098 57.969 31.774 78.586 56.029 20.859 24.255 36.382 53.118 46.569 86.59zM395.207 352.104c-9.217 26.924-13.825 58.94-13.825 96.050 0 37.352 4.608 69.369 13.825 96.049 9.46 26.923 24.134 47.539 44.023 61.85 20.132 14.554 46.085 21.83 77.859 21.83 47.782 0 82.103-16.009 102.962-48.025s31.288-75.919 31.288-131.704c0-37.111-4.608-69.127-13.825-96.050-8.975-26.68-23.406-47.297-43.296-61.85-19.889-14.31-45.842-21.466-77.858-21.466-31.532 0-57.242 7.155-77.131 21.466-19.889 14.553-34.563 35.169-44.023 61.85z" />
<glyph unicode="&#xe91c;" glyph-name="TI_highWeight" data-tags="TI_highWeight" d="M187.757 704h648.537c56.554 0 102.4-45.846 102.4-102.4v-273.066c0-56.554-45.846-102.398-102.4-102.398h-648.537c-56.554 0-102.4 45.844-102.4 102.398v273.066c0 56.554 45.846 102.4 102.4 102.4zM384.474 328.534h56.65v268.033h-56.65v-105.051h-106.15v105.051h-56.833v-268.033h56.833v115.683h106.15v-115.683zM770.026 328.534l68.198 268.033h-55.918l-34.099-146.3c-1.346-5.867-2.933-13.139-4.769-21.816-1.712-8.678-3.357-17.417-4.952-26.217-1.463-8.678-2.626-16.072-3.482-22.183-0.49 4.522-1.28 9.838-2.384 15.95-0.973 6.233-2.075 12.589-3.297 19.067s-2.444 12.466-3.667 17.967c-1.1 5.622-2.077 10.083-2.933 13.383l-39.050 150.151h-53.717l-39.050-150.151c-0.978-3.422-2.078-7.883-3.3-13.383s-2.444-11.489-3.667-17.967c-1.1-6.355-2.139-12.65-3.117-18.883-0.978-6.111-1.772-11.489-2.383-16.133-0.489 4.522-1.284 9.838-2.384 15.95-0.978 6.233-2.139 12.65-3.483 19.25-1.222 6.722-2.506 13.139-3.85 19.25-1.222 6.111-2.322 11.366-3.3 15.767l-34.283 146.3h-55.917l68.383-268.033h64.533l36.116 140.433c0.734 2.934 1.712 7.211 2.934 12.834s2.444 11.672 3.667 18.15c1.344 6.478 2.505 12.589 3.483 18.334 1.1 5.744 1.834 10.328 2.2 13.749 0.366-3.422 1.039-8.066 2.017-13.933 1.1-5.745 2.322-11.916 3.667-18.517 1.344-6.478 2.628-12.466 3.85-17.967s2.2-9.594 2.933-12.283l36.3-140.8h64.719z" />
<glyph unicode="&#xe91d;" glyph-name="TI_highPriority" data-tags="TI_highPriority" d="M512.024 21.307c-235.642 0-426.667 191.027-426.667 426.669s191.025 426.667 426.667 426.667c235.642 0 426.669-191.025 426.669-426.667s-191.027-426.669-426.669-426.669zM613.437 191.978h108.213v511.998h-108.213v-200.667h-202.769v200.667h-108.563v-511.998h108.563v220.978h202.769v-220.978z" />
<glyph unicode="&#xe91e;" glyph-name="TI_fullCredit" data-tags="TI_fullCredit" d="M231.643 661.357h560.765c80.786 0 146.286-65.494 146.286-146.286v-176.762c0-80.791-65.499-146.287-146.286-146.287h-560.765c-80.791 0-146.286 65.497-146.286 146.288v176.761c0 80.791 65.494 146.286 146.286 146.286zM649.961 540.399c12.681 5.805 27.042 8.708 43.083 8.708 13.597 0 26.736-1.986 39.415-5.958 12.683-3.972 24.825-8.708 36.44-14.208l19.251 45.375c-13.904 6.875-29.030 12.146-45.378 15.813-16.194 3.819-32.693 5.729-49.499 5.729-25.514 0-48.201-4.201-68.062-12.604-19.708-8.25-36.285-20.090-49.729-35.52-13.444-15.278-23.681-33.458-30.708-54.542s-10.541-44.306-10.541-69.667c0-34.68 5.5-64.93 16.5-90.75 11.153-25.819 27.958-45.833 50.417-60.042 22.611-14.208 51.028-21.312 85.25-21.312 18.18 0 34.222 1.222 48.124 3.667 13.904 2.444 27.655 6.34 41.253 11.687v46.75c-14.365-4.736-28.262-8.479-41.706-11.229-13.448-2.75-27.274-4.125-41.483-4.125-22.916 0-41.861 4.965-56.833 14.896-14.972 10.083-26.125 24.444-33.458 43.083-7.333 18.792-11 41.174-11 67.146 0 19.403 2.292 36.819 6.875 52.25 4.583 15.583 11.229 28.799 19.937 39.646 8.708 11 19.327 19.403 31.854 25.209zM300.024 256.003h54.542v138.187h126.041v46.062h-126.041v104.5h134.75v46.292h-189.292v-335.042z" />
<glyph unicode="&#xe91f;" glyph-name="TI_7PointCap" data-tags="TI_7PointCap" d="M512.024 21.307c-235.642 0-426.667 191.027-426.667 426.669s191.025 426.667 426.667 426.667c235.642 0 426.669-191.025 426.669-426.667s-191.027-426.669-426.669-426.669zM575.16 599.178l-176.241-385.871h104.011l177.524 407.058v62.278h-336.751v-83.466h231.456z" />
<glyph unicode="&#xe920;" glyph-name="alert-error" data-tags="alert-error" d="M163.782 796.218c-192.12-192.12-192.12-504.314 0-696.437 192.12-192.118 504.314-192.118 696.437 0 192.118 192.122 192.118 504.316 0 696.437-192.122 192.12-504.316 192.12-696.437 0zM240.328 176.329c-136.588 136.59-148.596 352.721-34.519 502.816l537.336-537.336c-150.095-114.078-366.229-102.069-502.814 34.521h-0.002zM818.188 216.86l-538.836 537.335c150.094 114.068 366.229 102.059 502.815-34.519 136.578-136.588 150.083-352.721 36.017-502.816h0.004z" />
<glyph unicode="&#xe921;" glyph-name="unlock" data-tags="unlock" d="M711.341 21.325h-394.831c-13.551 0-26.968 2.784-39.489 8.211-12.52 5.421-23.899 13.37-33.482 23.392s-17.184 21.926-22.37 35.021c-5.186 13.094-7.857 27.13-7.857 41.306v340.842c0.038 18.87 4.826 37.402 13.884 53.722s22.070 29.857 37.718 39.249v41.753c0 149.035 104.988 269.836 234.525 269.836h46.921c40.852-0.85 80.753-13.069 115.597-35.393 34.842-22.324 63.366-53.954 82.65-91.633 6.618-7.356 10.33-17.050 10.4-27.149 0-10.735-4.077-21.035-11.334-28.626s-17.101-11.851-27.366-11.851c-5.414 0.036-10.765 1.276-15.693 3.64-4.922 2.365-9.312 5.801-12.87 10.076l-0.678-0.506c-13.197 29.421-33.952 54.422-59.95 72.223-25.996 17.8-56.212 27.695-87.272 28.577h-34.079c-94.098 0-170.406-89.415-170.406-199.707v-24.596h427.502v-6.845c15.155-9.639 27.571-23.34 35.962-39.686s12.442-34.74 11.75-53.278v-340.847c0.403-13.933-1.85-27.808-6.65-40.813-4.794-13.005-12.019-24.877-21.267-34.918-9.248-10.035-20.32-18.042-32.563-23.533-12.25-5.498-25.421-8.378-38.752-8.467zM514.537 389.067c-20.527 0-40.217-8.534-54.732-23.716s-22.668-35.768-22.668-57.236c-0.347-16.512 4.268-32.723 13.187-46.355 8.919-13.626 21.696-23.987 36.538-29.626v-106.682h50.674v106.682c15.363 5.389 28.791 15.546 38.494 29.12s15.22 29.92 15.82 46.861c-0.029 21.434-8.181 41.985-22.675 57.139s-34.144 23.673-54.638 23.695v0.118z" />
<glyph unicode="&#xe922;" glyph-name="calendar" data-tags="calendar" d="M328.789 687.857c8.002 8.011 12.496 18.875 12.496 30.204v113.904c0 11.328-4.495 22.193-12.496 30.203s-18.854 12.511-30.17 12.511c-11.316 0-22.168-4.5-30.17-12.511s-12.496-18.875-12.496-30.203v-113.904c0-11.328 4.495-22.193 12.496-30.204s18.854-12.51 30.17-12.51c11.316 0 22.168 4.5 30.17 12.51zM745.977 862.168c8.002-8.010 12.493-18.875 12.493-30.203v-113.904c0-11.328-4.491-22.193-12.493-30.204s-18.857-12.51-30.173-12.51c-11.315 0-22.168 4.5-30.17 12.51s-12.496 18.875-12.496 30.204v113.904c0 11.328 4.495 22.193 12.496 30.203s18.855 12.511 30.17 12.511c11.316 0 22.171-4.5 30.173-12.511zM938.62 67.862v655.894c-0.453 12.521-5.749 24.375-14.775 33.055s-21.065 13.506-33.58 13.455h-103.351v-52.206c0-18.88-7.49-36.988-20.831-50.339-13.334-13.35-31.422-20.851-50.28-20.851-18.859 0-36.947 7.501-50.283 20.851s-20.828 31.459-20.828 50.339v52.206h-274.963v-52.206c0-18.88-7.492-36.988-20.827-50.339s-31.424-20.851-50.284-20.851c-18.86 0-36.947 7.501-50.283 20.851s-20.828 31.459-20.828 50.339v52.206h-94.815c-6.17 0.088-12.297-1.048-18.026-3.343s-10.948-5.702-15.356-10.026c-4.407-4.324-7.916-9.479-10.323-15.168s-3.666-11.797-3.702-17.975v-655.894c0.037-6.181 1.295-12.288 3.702-17.979 2.407-5.683 5.916-10.84 10.323-15.163s9.626-7.731 15.356-10.028c5.729-2.297 11.856-3.43 18.026-3.343h758.516c6.173-0.088 12.303 1.046 18.030 3.343s10.949 5.705 15.353 10.028c4.411 4.323 7.914 9.479 10.328 15.163 2.406 5.691 3.664 11.798 3.701 17.979zM856.92 523.080c3.533-3.363 5.632-7.967 5.844-12.846v-395.86c-0.022-2.443-0.541-4.857-1.514-7.095s-2.392-4.257-4.155-5.939c-1.77-1.682-3.855-2.992-6.137-3.847-2.289-0.863-4.718-1.251-7.153-1.156h-663.705c-4.877-0.037-9.578 1.829-13.115 5.186-3.536 3.365-5.633 7.973-5.849 12.851v395.86c0.027 2.442 0.543 4.853 1.518 7.091s2.387 4.258 4.155 5.939c1.769 1.682 3.855 2.991 6.138 3.85s4.715 1.252 7.151 1.154h663.705c4.879 0.034 9.574-1.826 13.115-5.189z" />
<glyph unicode="&#xe923;" glyph-name="facility" data-tags="facility" d="M142.334 64c-15.12 0.026-29.636 6.029-40.322 16.691-10.687 10.669-16.692 25.126-16.7 40.198v653.99c0.015 15.069 6.040 29.516 16.727 40.172s25.181 16.65 40.294 16.665h388.324v-328.86h407.985v-381.967c-0.006-15.072-6.010-29.53-16.698-40.198-10.688-10.662-25.203-16.666-40.32-16.691h-739.292zM530.659 409.345v-251.86c0.022-15.072 6.036-29.523 16.727-40.173 10.691-10.656 25.207-16.653 40.323-16.666h257.002c15.117 0.006 29.626 5.997 40.32 16.653s16.704 25.107 16.73 40.186v251.86c-0.026 15.077-6.035 29.53-16.73 40.186s-25.203 16.644-40.32 16.652h-256.975c-15.116-0.015-29.631-6.007-40.322-16.662s-16.733-25.103-16.755-40.175zM122.312 738.571v-581.086c0.015-15.072 6.013-29.523 16.7-40.173 10.686-10.656 25.181-16.653 40.294-16.666h257.055c15.108 0.013 29.59 6.010 40.267 16.666s16.672 25.107 16.672 40.173v581.086c0 15.064-5.994 29.515-16.672 40.172s-25.159 16.65-40.267 16.665h-257.055c-15.113-0.015-29.608-6.006-40.294-16.662s-16.685-25.106-16.7-40.175zM753.094 173.997v72.979h74.278v-72.979h-74.278zM604.906 173.997v72.979h74.3v-72.979h-74.3zM345.109 210.752v72.902h74.303v-72.902h-74.303zM196.614 210.752v72.902h74.192v-72.902h-74.192zM753.094 320.328v72.957h74.278v-72.957h-74.278zM604.906 320.328v72.957h74.3v-72.957h-74.3zM345.109 357.089v72.953h74.303v-72.953h-74.303zM196.614 357.089v72.953h74.192v-72.953h-74.192zM345.109 503.027v72.98h74.303v-72.98h-74.303zM196.614 503.027v72.98h74.192v-72.98h-74.192zM641.824 539.56v292.44h185.491v-36.534h-148.384v-73.098h111.328v-36.616h-111.328v-146.193h-37.107zM344.998 649.274v72.953h74.303v-72.953h-74.303zM196.504 649.274v72.953h74.192v-72.953h-74.192z" />
<glyph unicode="&#xe924;" glyph-name="close-bold" data-tags="close-bold" horiz-adv-x="1126" d="M975.593 860.365c-18.975 18.981-49.756 18.981-68.731 0l-343.7-343.697-343.689 343.696c-18.986 18.982-49.756 18.982-68.742 0-18.975-18.98-18.975-49.756 0-68.737l343.7-343.697-343.688-343.687c-18.987-18.982-18.987-49.756 0-68.738 18.974-18.982 49.756-18.982 68.742 0l343.677 343.686 343.689-343.686c18.986-18.982 49.756-18.982 68.742 0 18.975 18.982 18.975 49.756 0 68.738l-343.688 343.69 343.688 343.694c18.987 18.981 18.987 49.757 0 68.739z" />
<glyph unicode="&#xe925;" glyph-name="modal-close" data-tags="modal-close" d="M511.89 21.361c-84.384-0.010-166.878 25.006-237.045 71.88s-124.858 113.505-157.157 191.462c-32.298 77.962-40.753 163.745-24.295 246.509s57.086 158.789 116.751 218.461c59.665 59.672 135.687 100.31 218.448 116.776s168.548 8.018 246.51-24.272c77.962-32.29 144.599-86.974 191.478-157.136 46.884-70.162 71.905-152.651 71.905-237.035 0.005-56.024-11.023-111.504-32.456-163.267-21.437-51.763-52.859-98.796-92.472-138.414s-86.646-71.045-138.404-92.488c-51.763-21.437-107.238-32.476-163.263-32.476v0zM511.89 776.2c-64.913 0.009-128.371-19.231-182.349-55.288s-96.049-87.31-120.896-147.279c-24.847-59.969-31.354-125.96-18.696-189.627s43.913-122.148 89.81-168.054c45.897-45.901 104.376-77.164 168.041-89.83s129.654-6.17 189.624 18.668c59.976 24.837 111.237 66.903 147.302 120.878 36.065 53.97 55.311 117.427 55.311 182.339 0 87.035-34.57 170.505-96.113 232.052-61.537 61.547-144.998 96.13-232.035 96.142v0zM660.721 331.976l-33.26-33.254c-1.449-1.459-3.174-2.616-5.079-3.405-1.9-0.788-3.937-1.198-5.996-1.198s-4.096 0.41-6.001 1.198c-1.9 0.788-3.625 1.946-5.079 3.405l-94.188 94.193-94.19-94.193c-1.452-1.449-3.175-2.601-5.072-3.389-1.896-0.783-3.931-1.188-5.984-1.188s-4.087 0.404-5.984 1.188c-1.896 0.788-3.62 1.94-5.071 3.389l-33.255 33.254c-2.935 2.939-4.582 6.927-4.582 11.080s1.647 8.136 4.582 11.080l94.146 94.187-94.146 94.191c-1.459 1.453-2.614 3.179-3.404 5.080s-1.198 3.939-1.198 5.998c0 2.059 0.408 4.097 1.198 5.998s1.945 3.627 3.404 5.080l33.255 33.253c2.937 2.921 6.913 4.562 11.056 4.562s8.118-1.641 11.056-4.562l94.19-94.235 94.188 94.235c2.939 2.935 6.927 4.585 11.080 4.585s8.136-1.65 11.075-4.585l33.26-33.253c1.454-1.453 2.616-3.179 3.405-5.080s1.198-3.939 1.198-5.998c0-2.059-0.41-4.097-1.198-5.998s-1.951-3.628-3.405-5.080l-94.193-94.191 94.193-94.187c2.934-2.944 4.582-6.927 4.582-11.080s-1.649-8.141-4.582-11.080z" />
<glyph unicode="&#xe926;" glyph-name="telephone" data-tags="telephone" d="M729.044 291.738c-20.402 4.574-142.588-71.881-162.99-67.27s-85.239 62.839-142.923 173.78c-57.685 110.941-44.685 169.678-39.494 185.688s128.366 58.773 145.211 98.524c16.844 39.752-110.142 269.909-139.911 263.23-326.251-73.549-224.675-467.864-139.981-630.718s221.87-311.295 349.873-352.605c128.003-41.318 257.93 34.662 259.418 57.754 10.418 118.418-108.838 266.934-129.204 271.617z" />
<glyph unicode="&#xe927;" glyph-name="person-sm" data-tags="person-sm" d="M55.953-14.299c16.652-16.099 39.358-25.366 63.074-25.366h785.654c23.72 0 46.424 9.267 63.078 25.366 16.647 16.099 26.236 38.056 26.236 60.987v5.851l-36.33 46.351c-7.066 22.44-51.975 155.625-116.56 224.902-22.206 23.905-47.938 36.59-76.698 37.565-52.481 0.976-94.363-36.59-94.363-36.59l-3.532-4.879c0-0.488-30.78-58.544-134.727-60.495h-39.358c-102.433 1.951-135.232 60.495-135.232 60.495l-3.532 4.879c-1.514 1.464-42.891 38.541-94.359 36.59-28.762-0.976-54.497-13.66-76.698-37.565-64.589-69.277-109.497-202.462-116.562-224.902l-36.331-46.351v-5.851c0-22.93 9.587-44.888 26.239-60.987zM236.093 633.584c0-166.361 121.608-301.987 270.463-301.987 149.361 0 270.462 135.626 270.462 301.987s-121.101 301.988-270.462 301.988c-149.36 0-270.463-135.626-270.463-301.988z" />
<glyph unicode="&#xe928;" glyph-name="person-lg" data-tags="person-lg" d="M33.201-37.363c17.484-16.904 41.326-26.637 66.228-26.637h824.938c24.901 0 48.742 9.733 66.227 26.637 17.485 16.906 27.551 39.956 27.551 64.033v6.147l-38.147 48.663c-7.419 23.565-54.572 163.41-122.391 236.152-23.311 25.098-50.332 38.418-80.532 39.442-55.101 1.024-99.077-38.418-99.077-38.418l-3.709-5.123c0-0.512-32.317-61.471-141.463-63.521h-41.326c-107.553 2.051-141.993 63.521-141.993 63.521l-3.709 5.123c-1.59 1.536-45.036 40.468-99.077 38.418-30.2-1.024-57.221-14.344-80.534-39.442-67.817-72.742-114.972-212.588-122.39-236.152l-38.148-48.663v-6.147c0-24.077 10.067-47.127 27.551-64.033zM222.349 642.913c0-174.679 127.688-317.087 283.986-317.087 156.828 0 283.986 142.408 283.986 317.087s-127.158 317.087-283.986 317.087c-156.828 0-283.986-142.407-283.986-317.087z" />
<glyph unicode="&#xe929;" glyph-name="location-grey" data-tags="location-grey" d="M511.851 945.833c-182.13 0-331.851-142.026-331.851-344.614 0-72.298 17.029-122.59 48.661-178.291l260.854-459.485c2.208-3.985 5.444-7.313 9.372-9.626 3.928-2.321 8.404-3.541 12.964-3.541s9.036 1.22 12.964 3.541c3.928 2.313 7.164 5.641 9.372 9.626l260.854 459.485c31.631 55.703 48.66 105.995 48.66 178.291 0 202.588-149.72 344.614-331.85 344.614zM511.851 767.145c84.588 0 153.161-68.574 153.161-153.162s-68.573-153.161-153.161-153.161c-84.589 0-153.162 68.574-153.162 153.161s68.573 153.162 153.162 153.162z" />
<glyph unicode="&#xe92a;" glyph-name="gift" data-tags="gift" d="M426.141 934.774c-33.829 12.078-70.384 14.315-105.433 6.455-35.054-7.861-67.139-25.5-92.567-50.864-25.423-25.358-43.174-57.412-51.125-92.454-7.951-35.040-5.78-71.604 6.209-105.454 11.994-33.862 33.35-63.625 61.572-85.841 22.56-17.759 48.771-30.114 76.632-36.25v-4.447l435.42-0.030v4.38c24.278 5.611 47.13 16.487 66.882 31.965 25.442 19.936 44.722 46.686 55.567 77.148 10.844 30.459 12.811 63.368 5.69 94.898-7.122 31.533-23.046 60.4-45.926 83.24s-51.773 38.715-83.319 45.783c-31.545 7.068-64.463 5.037-94.901-5.858-30.441-10.896-57.149-30.208-77.041-55.685-15.055-19.281-25.739-41.498-31.428-65.108v19.662h-4.495c-6.065 27.854-18.342 54.083-36.035 76.678-22.149 28.284-51.877 49.706-85.702 61.782zM436.535 681.54h-77.462l-4.561 0.462c-14.028 1.421-27.348 6.792-38.454 15.502-11.1 8.705-19.502 20.384-24.228 33.675-4.727 13.294-5.583 27.653-2.471 41.409 3.114 13.758 10.070 26.353 20.058 36.316 9.992 9.965 22.587 16.882 36.349 19.959 13.769 3.079 28.129 2.187 41.407-2.571 13.276-4.759 24.93-13.191 33.609-24.316 8.683-11.129 14.030-24.486 15.414-38.516l0.362-3.666-0.021-78.254zM724.601 673.83l-3.807-0.396h-65.511v66.33l0.297 2.917c1.201 11.819 5.729 23.055 13.058 32.405 7.326 9.347 17.157 16.429 28.349 20.421 11.189 3.99 23.288 4.727 34.88 2.126 11.581-2.6 22.183-8.432 30.6-16.829 8.41-8.391 14.269-18.993 16.897-30.577 2.631-11.597 1.926-23.687-2.036-34.875s-11.028-21.036-20.37-28.392c-9.34-7.354-20.548-11.903-32.357-13.13zM489.581 528.777h-354.915v-272.451h354.915v272.451zM872.217 528.777h-358.409v-272.451h358.409v272.451zM489.581 222.793h-354.915v-272.516h354.915v272.516zM872.217 222.793h-358.409v-272.516h358.409v272.516z" />
<glyph unicode="&#xe92b;" glyph-name="email" data-tags="email" d="M982.844 780.46l-470.897-276.268-471.894 276.765c27.83 40.818 74.046 65.23 123.449 65.209h696.889c49.143-0.419 94.933-24.989 122.453-65.706zM511.945 405.132c17.487 0.030 34.656 4.664 49.777 13.44l448.002 261.831v-481.351c0-82.477-66.859-149.333-149.333-149.333h-696.89c-82.475 0-149.334 66.856-149.334 149.333v481.351l448-262.329c15.172-8.602 32.335-13.061 49.777-12.942z" />
<glyph unicode="&#xe92c;" glyph-name="cellphone" data-tags="cellphone" d="M776.354-49.724h-528.709c-9.095 0.017-17.814 3.789-24.245 10.487s-10.051 15.77-10.067 25.242v924.090c0.008 9.474 3.625 18.562 10.058 25.261s15.156 10.468 24.254 10.476h528.709c9.098-0.008 17.821-3.777 24.254-10.476s10.051-15.787 10.058-25.261v-924.090c-0.016-9.472-3.635-18.543-10.067-25.242s-15.15-10.47-24.246-10.487zM511.105 68.352c-9.088 0-17.971-2.807-25.527-8.064s-13.446-12.732-16.923-21.47c-3.478-8.747-4.388-18.372-2.615-27.657s6.149-17.801 12.575-24.491c6.426-6.699 14.613-11.255 23.526-13.107 8.913-1.843 18.152-0.896 26.548 2.731 8.396 3.618 15.572 9.754 20.621 17.63 5.049 7.868 7.744 17.109 7.744 26.581-0.008 12.681-4.851 24.849-13.466 33.818-8.615 8.977-20.298 14.020-32.482 14.029zM277.184 913.858c-9.092-0.008-17.811-3.768-24.243-10.461s-10.053-15.77-10.069-25.239v-739.832c0.016-9.469 3.637-18.545 10.069-25.238 6.432-6.695 15.151-10.45 24.243-10.458h468.737c9.087 0.017 17.798 3.78 24.224 10.473s10.042 15.76 10.058 25.224v739.832c-0.016 9.464-3.633 18.532-10.058 25.223s-15.137 10.46-24.224 10.476h-468.737z" />
<glyph unicode="&#xe92d;" glyph-name="p-text" data-tags="p-text" d="M511.352-39.665c-96.416 0.124-190.632 28.826-270.74 82.483s-142.509 129.858-179.319 218.971c-36.81 89.114-46.375 187.14-27.487 281.689s65.382 181.375 133.605 249.506c68.223 68.131 155.113 114.508 249.686 133.268s192.587 9.063 281.65-27.868c89.067-36.931 165.179-99.436 218.727-179.615s82.125-174.434 82.117-270.851c-0.227-129.359-51.763-253.343-143.294-344.757-91.531-91.407-215.586-142.775-344.946-142.826zM328.287 731.634v-588.377h110.394v191.77h75.099c52.593 0 103.032 20.893 140.221 58.082s58.081 87.628 58.081 140.221c0 52.593-20.893 103.033-58.081 140.222s-87.629 58.081-140.221 58.081h-185.492zM513.848 462.827h-75.237v140.869h75.168c18.685 0 36.604-7.423 49.817-20.634s20.635-31.133 20.635-49.818c0-18.685-7.423-36.605-20.635-49.818s-31.132-20.635-49.817-20.635l0.069 0.035z" />
<glyph unicode="&#xe92e;" glyph-name="provider-2" data-tags="provider-2" d="M24.357-39.636v291.558c0 94.746 52.171 167.015 192.129 187.892l96.587-20.877c-51.354 56.352-81.714 126.915-86.465 200.96 0 10.291 0.626 19.961 1.217 29.697 6.418 35.221 16.639 69.737 30.503 103.012 17.129 53.258 52.168 99.869 99.866 132.852s105.487 50.563 164.713 50.106c142.602 0 278.249-97.653 278.249-315.732 1.558-75.903-22.448-150.328-68.593-212.656h93.111c22.777 0.677 45.458-2.989 66.684-10.778 21.219-7.788 40.543-19.536 56.795-34.535 16.26-14.999 29.104-32.939 37.771-52.734s12.976-41.033 12.654-62.435v-286.359l-975.22 0.029zM89.328 205.627v-184.591h389.546v242.191c-48.38 1.012-72.065 22.216-118.254 57.174h-135.055c-63.892 0.032-136.376-51.392-136.376-114.774h0.139zM544.366 297.269v-274.668h389.025v198.020c0 63.318-28.314 99.78-92.306 99.78h-138.5c-30.155-22.935-125.664-13.787-158.358-23.099l0.139-0.033zM311.822 661.061c-2.074-14.571-3.235-29.244-3.479-43.943 0-133.951 128.689-242.55 214.424-242.55s214.425 108.631 214.425 242.55c-0.080 25.012-3.028 49.943-8.8 74.359-18.633-2.067-37.375-3.158-56.137-3.267-50.131-1.283-100.016 7.036-146.615 24.448s-88.937 43.554-124.433 76.833c-20.138-55.835-46.432-106.704-89.56-128.397l0.174-0.033zM244.312 80.333v87.596h-92.518v30.574h92.518v88.214h32.137v-88.214h92.239v-30.61h-92.551v-87.589l-31.824 0.029zM406.321 601.763c0.469 7.924 3.399 15.545 8.429 21.922s11.938 11.23 19.871 13.958c7.933 2.729 16.544 3.215 24.768 1.397s15.7-5.859 21.505-11.625c5.806-5.765 9.686-13.002 11.161-20.816s0.48-15.864-2.861-23.153c-3.342-7.289-8.883-13.498-15.941-17.861s-15.321-6.687-23.769-6.687c-5.847 0.135-11.608 1.354-16.952 3.585s-10.168 5.43-14.195 9.415c-4.026 3.985-7.175 8.678-9.267 13.808s-3.085 10.598-2.923 16.090l0.174-0.033zM536.158 601.142c0.381 7.673 3.155 15.072 7.974 21.277s11.474 10.944 19.136 13.628c7.662 2.684 15.993 3.194 23.962 1.468s15.222-5.614 20.858-11.179c5.636-5.565 9.409-12.562 10.848-20.123s0.481-15.353-2.753-22.408c-3.235-7.055-8.604-13.062-15.442-17.275s-14.842-6.446-23.019-6.422c-5.614 0.118-11.148 1.276-16.284 3.408s-9.775 5.193-13.649 9.011c-3.874 3.818-6.908 8.317-8.927 13.239s-2.986 10.169-2.843 15.442l0.14-0.066z" />
<glyph unicode="&#xe92f;" glyph-name="pending" data-tags="pending" horiz-adv-x="1097" d="M908.595 769.714c0 18.41 14.921 33.333 33.331 33.333s33.339-14.923 33.339-33.333v-98.333c0-37.245-19.207-70.074-48.216-89.158-0.951-0.689-1.953-1.327-2.992-1.92-16.172-9.884-35.16-15.589-55.464-15.589h-101.756c-18.41 0-33.339 14.923-33.339 33.333s14.928 33.333 33.339 33.333h91.648c-64.293 108.478-181.96 176.667-309.889 176.667-198.505 0-360-161.495-360-360s161.495-359.998 360-359.998c0.155 0 0.308-0.015 0.46-0.022 0.124-0.007 0.247-0.022 0.373-0.022s0.249 0.015 0.372 0.022c0.153 0.007 0.305 0.022 0.461 0.022 10.165 0 20.425 0.424 30.498 1.265 18.367 1.543 34.462-12.091 36-30.435 1.535-18.344-12.092-34.458-30.437-35.994-11.916-1.002-24.048-1.507-36.062-1.507-0.156 0-0.308 0.015-0.461 0.022-0.124 0.007-0.247 0.015-0.372 0.022-0.126-0.007-0.249-0.015-0.373-0.022-0.152-0.007-0.305-0.022-0.46-0.022-113.967 0-221.112 44.383-301.7 124.965-80.585 80.589-124.967 187.737-124.967 301.703s44.382 221.112 124.967 301.7c80.588 80.584 187.734 124.966 301.7 124.966 146.918 0 282.41-75.88 360-197.56v92.56zM515.262 714.714v-252.86l-122.232-122.23c-13.017-13.018-13.017-34.123 0-47.14 6.51-6.51 15.038-9.763 23.572-9.763 8.53 0 17.061 3.255 23.572 9.763l131.993 131.994c6.25 6.249 9.762 14.73 9.762 23.57v266.666c0 18.41-14.923 33.333-33.333 33.333s-33.333-14.923-33.333-33.333zM941.685 396.571c-17.979 3.915-35.745-7.493-39.658-25.48-2.158-9.895-4.762-19.809-7.746-29.469-5.435-17.59 4.418-36.253 22.009-41.689 3.277-1.012 6.59-1.493 9.852-1.493 14.234 0 27.414 9.19 31.832 23.503 3.547 11.464 6.634 23.229 9.194 34.967 3.913 17.987-7.497 35.743-25.483 39.66zM885.936 240.246c-14.768 10.988-35.65 7.92-46.636-6.848-6.042-8.125-12.507-16.091-19.222-23.683-12.193-13.795-10.898-34.86 2.896-47.053 6.341-5.603 14.219-8.36 22.060-8.36 9.223 0 18.403 3.803 24.993 11.257 7.943 8.989 15.601 18.425 22.762 28.050 10.986 14.768 7.921 35.651-6.853 46.637zM698.26 119.771c9.22 4.162 18.383 8.777 27.233 13.722 16.072 8.975 36.384 3.218 45.351-12.859 8.982-16.069 3.226-36.374-12.851-45.349-10.496-5.859-21.358-11.337-32.295-16.274-4.451-2.011-9.114-2.962-13.7-2.962-12.7 0-24.831 7.292-30.398 19.624-7.576 16.779-0.118 36.52 16.66 44.098z" />
</font>
</defs>
</svg>
